<?xml version="1.0" encoding="UTF-8" standalone="no"?>
<!DOCTYPE svg PUBLIC "-//W3C//DTD SVG 1.1//EN" "http://www.w3.org/Graphics/SVG/1.1/DTD/svg11.dtd">
<svg width="100%" height="100%" viewBox="0 0 985 985" version="1.1" xmlns="http://www.w3.org/2000/svg" xmlns:xlink="http://www.w3.org/1999/xlink" xml:space="preserve" xmlns:serif="http://www.serif.com/" style="fill-rule:evenodd;clip-rule:evenodd;stroke-linecap:round;stroke-linejoin:round;stroke-miterlimit:1.8654;">
    <g id="Artboard1" transform="matrix(1.46875,0,0,1.46875,-1350.3,-51.6857)">
        <rect x="919.355" y="35.19" width="670.622" height="670.622" style="fill-opacity:0;"/>
        <g transform="matrix(1.05327,0,0,1.05327,647.836,-163.755)">
            <g transform="matrix(0.646417,0,0,0.646417,-1281.51,-631.798)">
                <g id="A">
                    <path d="M2742.17,1593.82C2789.7,1525.38 2844.56,1477.97 2891.42,1481.89C2933.57,1485.41 2990.03,1540.29 3028.39,1599.31M3107.59,1805.81C3133.5,1922.88 3124.39,2035.98 3041.71,2042.22C2947.44,2049.35 2940.91,1908.43 2936.7,1884.43C2896.19,1898.11 2853.1,1891.93 2821.39,1880.84C2818.72,1895.67 2789.92,2063.22 2687.3,2025.15C2621.75,2000.82 2615.78,1911.46 2641.62,1812.02" style="fill-opacity:0;stroke:white;stroke-width:37.32px;"/>
                </g>
            </g>
            <g id="glasses" transform="matrix(1.31523,0,0,1.31165,-241.911,-206.933)">
                <g transform="matrix(0.839272,0.419197,-0.451604,0.904154,509.202,-128.38)">
                    <ellipse cx="351.094" cy="555.639" rx="51.94" ry="66.098" style="fill:white;fill-opacity:0;stroke:white;stroke-width:18.12px;stroke-miterlimit:3.02326;"/>
                </g>
                <g transform="matrix(-0.839272,0.419197,0.451604,0.904154,728.126,-127.574)">
                    <ellipse cx="351.094" cy="555.639" rx="51.94" ry="66.098" style="fill:white;fill-opacity:0;stroke:white;stroke-width:18.12px;stroke-miterlimit:3.02326;"/>
                </g>
                <g transform="matrix(1,0,0,1,0.800793,10.7718)">
                    <path d="M601.896,519.532C610.374,514.826 626.176,513.585 634.685,523.193" style="fill:rgb(69,69,69);stroke:white;stroke-width:18.49px;stroke-miterlimit:1.5;"/>
                </g>
                <g id="Layer5">
                </g>
                <g transform="matrix(0.721872,0,0,0.723838,228.808,111.699)">
                    <g transform="matrix(1,0,0,1,-1333.71,0)">
                        <path d="M1822.19,493.204C1819.7,484.002 1787.19,494.172 1782.24,514.651C1776.79,537.228 1795.2,606.97 1803.05,625.528C1796.45,632.706 1796.58,632.762 1795.42,632.987C1794.11,633.242 1788.57,636.102 1780.57,638.68C1779.69,630.774 1781.68,633.822 1779.4,624.853C1779.03,623.403 1754.61,524.555 1756.01,514.213C1757.94,500.041 1785.18,489.745 1796.52,488.604C1813.08,486.936 1819.09,494.011 1820.23,494.737" style="fill:white;fill-opacity:0.96;"/>
                    </g>
                    <g transform="matrix(1,0,0,1,-1330.46,-1.23108)">
                        <path d="M1749.08,515.7C1750.33,528.752 1765.68,604.131 1767.54,610.724C1776.86,643.839 1776.85,640.275 1770.36,642.334C1756.78,600.108 1753.35,580.779 1748.65,563.824C1742.27,540.751 1734.43,526.245 1749.08,515.7Z" style="fill:white;fill-opacity:0.96;"/>
                    </g>
                    <g transform="matrix(1,0,0,1,-1333.71,0)">
                        <path d="M1972.88,498.231C1971.98,497.261 1965.18,492.613 1964.24,505.337C1962.44,529.421 1991.95,587.777 2018.53,620.838C2007.84,639.071 1995.95,640.407 1994.23,641.016C2007.42,629.799 1994.9,622.815 1959.3,556.003C1954.51,547.032 1921.72,504.156 1939.53,492.279C1949.35,485.731 1970.8,497.419 1972.88,498.231Z" style="fill:white;fill-opacity:0.96;"/>
                    </g>
                    <g transform="matrix(1,0,0,1,-1333.71,0)">
                        <path d="M1933.23,494.336C1918.34,512.092 1941.76,545.704 1961.99,576.77C1988.35,617.253 2007.33,627.178 1988.73,642.327C1998.28,626.504 1976.35,621.951 1935.18,542.907C1927.01,527.224 1919.01,513.522 1921.81,502.21C1922.71,498.537 1928.26,493.565 1936.58,492.495" style="fill:white;fill-opacity:0.96;"/>
                    </g>
                </g>
            </g>
        </g>
    </g>
</svg>
